<?xml version="1.0" standalone="no"?>
<!DOCTYPE svg PUBLIC "-//W3C//DTD SVG 20010904//EN"
 "http://www.w3.org/TR/2001/REC-SVG-20010904/DTD/svg10.dtd">
<svg version="1.0" xmlns="http://www.w3.org/2000/svg"
 width="355.000000pt" height="344.000000pt" viewBox="0 0 355.000000 344.000000"
 preserveAspectRatio="xMidYMid meet">

<g transform="translate(0.000000,344.000000) scale(0.100000,-0.100000)"
fill="#000000" stroke="none">
<path d="M1763 3323 c15 -2 37 -2 50 0 12 2 0 4 -28 4 -27 0 -38 -2 -22 -4z"/>
<path d="M1573 3313 c9 -2 25 -2 35 0 9 3 1 5 -18 5 -19 0 -27 -2 -17 -5z"/>
<path d="M1923 3313 c9 -2 23 -2 30 0 6 3 -1 5 -18 5 -16 0 -22 -2 -12 -5z"/>
<path d="M1508 3303 c7 -3 16 -2 19 1 4 3 -2 6 -13 5 -11 0 -14 -3 -6 -6z"/>
<path d="M1998 3303 c7 -3 16 -2 19 1 4 3 -2 6 -13 5 -11 0 -14 -3 -6 -6z"/>
<path d="M1637 3160 c-721 -66 -1284 -616 -1347 -1315 -17 -193 9 -441 65
-620 8 -27 11 -45 6 -40 -13 13 -56 161 -78 265 -27 129 -24 429 5 566 57 265
165 486 336 686 129 151 283 266 506 379 75 38 118 64 107 67 -41 9 -210 -71
-356 -168 -156 -105 -335 -290 -439 -455 -52 -83 -118 -225 -150 -321 -128
-384 -96 -806 89 -1171 185 -365 498 -634 888 -763 162 -54 285 -73 466 -73
308 -1 573 80 836 254 118 79 293 252 375 374 57 84 109 175 101 175 -3 0 -24
-30 -47 -67 -110 -169 -268 -330 -438 -444 -180 -121 -303 -167 -528 -199
-116 -17 -136 -8 -29 13 426 85 754 334 949 724 57 113 60 134 5 34 -195 -358
-506 -597 -908 -699 -99 -25 -121 -27 -321 -27 -200 0 -222 2 -320 27 -282 71
-499 196 -697 401 -103 107 -174 208 -238 342 -42 89 -105 269 -105 303 0 9
-7 30 -15 45 -36 70 -49 359 -21 487 25 115 96 318 96 275 0 -5 -11 -45 -25
-88 -39 -122 -56 -239 -56 -384 1 -240 41 -404 153 -625 119 -235 334 -446
577 -568 34 -17 70 -29 78 -26 8 3 11 2 8 -4 -7 -11 151 -63 295 -96 131 -31
336 -42 465 -25 501 65 921 408 1079 881 55 164 69 266 63 465 -5 218 -37 349
-126 530 -134 273 -326 467 -596 601 -191 95 -317 125 -540 131 -194 6 -292
-7 -452 -58 -193 -62 -351 -158 -505 -307 -208 -202 -333 -441 -384 -732 -26
-151 -15 -379 25 -535 82 -312 279 -589 546 -767 110 -74 114 -78 45 -43 -291
144 -531 426 -639 750 -68 203 -85 476 -41 645 80 312 237 567 480 782 77 68
74 77 -4 13 -31 -25 -58 -45 -61 -45 -31 0 149 132 245 179 41 21 102 48 135
61 33 13 67 28 75 35 24 19 156 54 270 71 135 21 354 14 492 -16 275 -58 519
-190 713 -385 160 -161 279 -348 351 -552 46 -132 57 -95 11 42 -93 282 -291
536 -556 715 -91 61 -290 154 -396 184 -188 55 -430 73 -615 46 -164 -23 -347
-86 -502 -173 -183 -103 -396 -300 -517 -482 -39 -58 -71 -103 -71 -100 0 15
48 97 101 176 325 475 912 715 1504 613 106 -18 243 -55 310 -84 26 -11 50
-19 52 -16 6 6 -140 60 -227 85 -167 46 -386 66 -553 51z m-837 -463 c0 -2
-15 -16 -32 -33 l-33 -29 29 33 c28 30 36 37 36 29z m377 -289 c6 -7 38 -100
72 -207 35 -106 66 -190 70 -185 4 5 31 90 61 189 29 99 57 188 62 198 8 16
26 17 201 15 l192 -3 3 -429 c1 -308 -1 -433 -9 -442 -9 -11 -43 -14 -134 -14
-103 0 -124 3 -129 16 -3 9 -6 138 -6 286 0 149 -2 269 -5 266 -3 -3 -43 -124
-90 -269 -46 -145 -86 -272 -90 -281 -6 -15 -20 -18 -89 -18 -76 0 -84 2 -92
23 -6 12 -48 141 -95 286 l-84 263 -5 -283 -5 -284 -105 0 -105 0 -3 430 c-1
237 0 436 3 443 3 9 50 12 188 12 136 0 187 -3 194 -12z m1345 -2 c19 -19 311
-853 303 -866 -4 -6 -57 -10 -139 -10 l-134 0 -28 83 -29 82 -140 3 -141 3
-29 -83 -30 -83 -113 -3 c-111 -3 -112 -2 -112 20 0 27 285 835 301 855 16 19
272 19 291 -1z m-1392 -1121 c37 -19 70 -62 70 -91 0 -22 -4 -24 -50 -24 -45
0 -52 3 -60 25 -11 29 -31 32 -54 9 -16 -16 -22 -105 -10 -138 10 -26 60 -20
83 10 18 23 24 25 57 17 21 -4 39 -13 41 -18 5 -18 -36 -75 -69 -96 -45 -28
-130 -23 -176 11 -91 68 -78 252 22 296 41 18 110 17 146 -1z m204 -1 c3 -9 6
-62 6 -119 0 -113 10 -136 49 -115 19 10 21 20 21 118 0 59 4 113 9 120 5 8
23 12 47 10 l39 -3 3 -122 c4 -175 -22 -213 -143 -213 -61 0 -102 18 -126 54
-14 22 -27 242 -15 271 8 22 102 21 110 -1z m437 -1 c70 -27 84 -98 32 -154
l-23 -26 25 -57 c37 -84 35 -88 -32 -84 l-56 3 -22 60 c-30 80 -43 81 -47 3
l-3 -63 -52 -3 -53 -3 0 170 0 171 95 0 c65 0 108 -5 136 -17z m310 -4 c46
-23 48 -42 8 -71 -25 -19 -28 -19 -52 -3 -27 17 -68 17 -68 0 0 -5 20 -15 44
-21 64 -16 105 -44 117 -77 16 -47 12 -65 -23 -103 -28 -31 -42 -37 -85 -42
-28 -2 -67 -1 -86 2 -34 7 -96 49 -96 66 0 5 16 18 35 30 l35 22 26 -21 c28
-22 60 -27 83 -12 16 11 10 15 -59 34 -65 19 -99 50 -106 99 -5 28 -1 40 22
67 15 18 37 37 48 41 39 16 115 11 157 -11z m311 -1 c98 -55 107 -225 15 -290
-67 -48 -182 -31 -229 35 -31 43 -37 135 -13 188 37 81 145 113 227 67z m329
-1 c41 -27 43 -43 8 -69 -24 -18 -27 -19 -61 -2 -20 9 -44 14 -54 10 -25 -9
-8 -21 56 -40 87 -24 122 -77 95 -142 -19 -47 -68 -74 -132 -74 -63 0 -129 24
-145 53 -9 18 -6 24 18 44 35 28 39 28 67 3 14 -14 32 -20 51 -18 50 5 39 24
-23 41 -93 26 -133 89 -98 156 31 60 153 82 218 38z m-1662 -852 c261 -128
545 -183 843 -163 67 4 123 6 125 4 2 -2 -42 -9 -99 -16 -206 -25 -456 -1
-655 65 -96 31 -307 135 -348 171 l-30 26 49 -27 c27 -15 78 -42 115 -60z"/>
<path d="M2341 2118 c-18 -47 -71 -200 -71 -204 0 -2 36 -4 80 -4 44 0 80 4
80 8 0 11 -69 214 -75 220 -2 3 -9 -7 -14 -20z"/>
<path d="M978 1262 c-38 -23 -58 -69 -58 -132 0 -94 49 -150 132 -150 57 0 98
18 123 56 14 22 15 28 4 35 -23 15 -41 10 -65 -17 -18 -19 -32 -24 -56 -22
-40 4 -58 34 -58 98 0 55 17 90 48 101 19 7 29 4 50 -18 19 -20 35 -27 55 -25
29 4 33 13 17 43 -26 47 -138 66 -192 31z"/>
<path d="M1242 1154 c3 -124 3 -126 31 -150 23 -20 39 -24 88 -24 114 0 128
19 129 178 l0 122 -30 0 -30 0 0 -106 c0 -125 -7 -144 -55 -144 -48 0 -55 19
-55 144 l0 106 -41 0 -41 0 4 -126z"/>
<path d="M1550 1131 l0 -151 40 0 40 0 0 59 c0 33 5 63 10 66 25 15 49 -8 68
-63 18 -56 19 -57 60 -60 23 -2 42 0 42 4 0 3 -12 32 -26 64 l-25 57 30 31
c38 37 40 71 7 109 -23 27 -28 28 -135 31 l-111 4 0 -151z m179 81 c17 -32
-13 -64 -57 -60 -30 2 -38 7 -40 26 -6 40 5 52 47 52 29 0 43 -5 50 -18z"/>
<path d="M1650 1195 c0 -21 5 -25 29 -25 17 0 33 5 36 10 10 16 -15 40 -41 40
-19 0 -24 -5 -24 -25z"/>
<path d="M1918 1264 c-32 -17 -48 -43 -48 -76 0 -42 27 -66 99 -88 75 -22 92
-41 58 -65 -29 -20 -55 -19 -94 5 -31 18 -33 18 -54 1 l-23 -18 29 -19 c20
-13 52 -20 102 -22 69 -4 74 -3 103 26 62 62 31 128 -74 156 -64 18 -86 36
-63 54 24 19 53 21 80 7 23 -12 32 -12 48 -2 63 39 -93 79 -163 41z"/>
<path d="M2240 1267 c-13 -7 -35 -28 -48 -47 -21 -30 -23 -44 -20 -104 4 -64
6 -70 41 -102 33 -30 43 -34 93 -34 99 0 144 48 144 153 0 93 -51 147 -140
147 -25 0 -56 -6 -70 -13z m117 -67 c7 -14 13 -49 13 -78 0 -43 -5 -58 -25
-77 -30 -31 -40 -31 -72 1 -23 23 -25 31 -21 89 2 34 10 70 18 79 20 25 72 17
87 -14z"/>
<path d="M2286 1204 c-19 -18 -22 -114 -6 -145 12 -21 40 -25 58 -7 18 18 15
133 -4 152 -8 9 -19 16 -24 16 -5 0 -16 -7 -24 -16z"/>
<path d="M2570 1273 c-34 -13 -60 -47 -60 -80 0 -44 34 -78 91 -93 66 -16 69
-18 76 -36 16 -43 -76 -56 -119 -18 -18 17 -20 17 -40 -3 l-21 -22 34 -20 c46
-28 141 -29 186 -2 39 24 51 67 29 109 -15 30 -39 43 -114 62 -45 12 -63 33
-43 53 14 14 77 13 96 -3 10 -8 18 -8 34 2 28 17 26 25 -9 43 -28 14 -109 19
-140 8z"/>
<path d="M904 3094 c-18 -14 -18 -15 4 -4 12 6 22 13 22 15 0 8 -5 6 -26 -11z"/>
<path d="M2431 3016 c10 -9 109 -56 109 -51 0 5 -95 55 -106 55 -4 0 -5 -2 -3
-4z"/>
<path d="M729 2973 c-13 -16 -12 -17 4 -4 9 7 17 15 17 17 0 8 -8 3 -21 -13z"/>
<path d="M679 2933 c-13 -16 -12 -17 4 -4 9 7 17 15 17 17 0 8 -8 3 -21 -13z"/>
<path d="M2570 2946 c0 -3 9 -10 20 -16 11 -6 20 -8 20 -6 0 3 -9 10 -20 16
-11 6 -20 8 -20 6z"/>
<path d="M2620 2917 c0 -2 19 -17 43 -32 23 -16 37 -22 30 -14 -12 15 -73 53
-73 46z"/>
<path d="M575 2838 l-40 -43 43 40 c23 21 42 40 42 42 0 8 -9 0 -45 -39z"/>
<path d="M2750 2825 c112 -94 269 -265 333 -360 71 -108 142 -249 177 -355 29
-87 70 -266 70 -310 0 -19 4 -41 9 -49 24 -38 -27 243 -65 359 -79 239 -258
500 -450 660 -44 36 -88 72 -99 79 -11 8 0 -3 25 -24z"/>
<path d="M489 2743 c-13 -16 -12 -17 4 -4 9 7 17 15 17 17 0 8 -8 3 -21 -13z"/>
<path d="M181 2064 c0 -11 3 -14 6 -6 3 7 2 16 -1 19 -3 4 -6 -2 -5 -13z"/>
<path d="M172 2010 c0 -14 2 -19 5 -12 2 6 2 18 0 25 -3 6 -5 1 -5 -13z"/>
<path d="M162 1945 c0 -16 2 -22 5 -12 2 9 2 23 0 30 -3 6 -5 -1 -5 -18z"/>
<path d="M153 1850 c0 -30 2 -43 4 -27 2 15 2 39 0 55 -2 15 -4 2 -4 -28z"/>
<path d="M181 1884 c0 -11 3 -14 6 -6 3 7 2 16 -1 19 -3 4 -6 -2 -5 -13z"/>
<path d="M422 1830 c0 -14 2 -19 5 -12 2 6 2 18 0 25 -3 6 -5 1 -5 -13z"/>
<path d="M172 1725 c0 -16 2 -22 5 -12 2 9 2 23 0 30 -3 6 -5 -1 -5 -18z"/>
<path d="M153 1660 c0 -30 2 -43 4 -27 2 15 2 39 0 55 -2 15 -4 2 -4 -28z"/>
<path d="M422 1570 c0 -14 2 -19 5 -12 2 6 2 18 0 25 -3 6 -5 1 -5 -13z"/>
<path d="M162 1550 c0 -14 2 -19 5 -12 2 6 2 18 0 25 -3 6 -5 1 -5 -13z"/>
<path d="M171 1484 c0 -11 3 -14 6 -6 3 7 2 16 -1 19 -3 4 -6 -2 -5 -13z"/>
<path d="M222 1430 c0 -14 2 -19 5 -12 2 6 2 18 0 25 -3 6 -5 1 -5 -13z"/>
<path d="M231 1384 c0 -11 3 -14 6 -6 3 7 2 16 -1 19 -3 4 -6 -2 -5 -13z"/>
<path d="M241 1345 c-1 -11 17 -73 39 -138 22 -66 40 -124 40 -130 0 -22 70
-149 133 -241 73 -107 240 -279 347 -358 284 -208 625 -318 992 -318 129 0
310 25 398 55 25 8 34 13 20 10 -198 -38 -210 -39 -440 -40 -193 0 -250 3
-320 19 -311 68 -581 216 -805 440 -189 189 -294 365 -376 631 -15 50 -28 81
-28 70z"/>
</g>
</svg>
