<?xml version="1.0" encoding="utf-8"?>
<!-- Generator: Adobe Illustrator 16.0.0, SVG Export Plug-In . SVG Version: 6.00 Build 0)  -->
<!DOCTYPE svg PUBLIC "-//W3C//DTD SVG 1.1//EN" "http://www.w3.org/Graphics/SVG/1.1/DTD/svg11.dtd">
<svg version="1.1" id="Layer_1" xmlns="http://www.w3.org/2000/svg" xmlns:xlink="http://www.w3.org/1999/xlink" x="0px" y="0px"
	 width="1190.55px" height="841.89px" viewBox="0 0 1190.55 841.89" enable-background="new 0 0 1190.55 841.89"
	 xml:space="preserve">
<g>
	<g>
		<path fill="#F68B1F" d="M705.258,521.55v21.952h-17.31v40.959c0,2.913,0.562,5.101,1.694,6.558
			c1.127,1.459,3.24,2.185,6.337,2.185c2.555,0,5.649-0.653,9.278-1.961v20.793c-8.031,3.151-15.586,4.729-22.666,4.729
			c-8.151,0-14.265-2.067-18.339-6.202c-4.075-4.135-6.111-9.98-6.111-17.536v-49.523h-11.87V521.55h11.87v-14.546l29.806-21.418
			v35.964H705.258z"/>
		<path fill="#F68B1F" d="M815.465,574.732h-69.959c0.711,7.199,3.194,12.895,7.449,17.089c4.252,4.194,9.74,6.291,16.464,6.291
			c7.438,0,14.695-3.688,21.774-11.065l23.202,7.495c-5.118,7.676-11.454,13.434-19.007,17.268
			c-7.558,3.839-16.509,5.757-26.86,5.757c-10.354,0-19.498-1.949-27.442-5.844c-7.94-3.899-14.099-9.416-18.469-16.556
			c-4.373-7.139-6.56-15.526-6.56-25.163c0-9.517,2.276-18.145,6.827-25.877c4.551-7.736,10.709-13.789,18.472-18.161
			c7.764-4.373,16.197-6.561,25.298-6.561c9.875,0,18.471,2.276,25.791,6.827c7.317,4.551,12.952,11.007,16.911,19.365
			C813.309,553.956,815.345,563.667,815.465,574.732z M765.227,539.307c-5.355,0-9.656,1.546-12.896,4.64
			c-3.243,3.094-5.279,7.822-6.113,14.189h39.086c-0.836-5.591-3.108-10.129-6.827-13.61
			C774.758,541.047,770.34,539.307,765.227,539.307z"/>
		<path fill="#F68B1F" d="M903.184,529.4v-7.851h20.435v38.012h-21.146c-4.998-10.351-12.616-15.526-22.846-15.526
			c-6.245,0-11.409,2.291-15.483,6.873c-4.074,4.581-6.11,10.29-6.11,17.132c0,7.556,1.947,13.76,5.844,18.605
			c3.896,4.849,9.086,7.274,15.572,7.274c4.697,0,9.161-1.311,13.384-3.928c4.224-2.618,7.676-6.303,10.351-11.065l23.202,10.263
			c-5.118,9.637-11.274,16.776-18.471,21.415c-7.2,4.643-16.897,6.962-29.091,6.962c-15.827,0-28.363-4.329-37.613-12.983
			c-9.25-8.656-13.875-20.658-13.875-36.01c0-9.158,2.125-17.398,6.38-24.716c4.252-7.317,10.007-13.074,17.267-17.267
			c7.257-4.195,15.2-6.291,23.827-6.291C884.681,520.3,894.14,523.333,903.184,529.4z"/>
		<path fill="#F68B1F" d="M1006.251,519.405c9.519,0,16.673,2.887,21.461,8.656c4.791,5.771,7.185,14.159,7.185,25.166v40.512
			h13.921v21.597h-43.904v-60.681c0-3.867-0.731-6.635-2.188-8.298c-1.459-1.666-3.88-2.5-7.272-2.5
			c-4.639,0-9.877,1.903-15.707,5.712v44.17h13.12v21.597h-58.096v-21.597h15.171v-91.377h-15.171v-21.508h44.976v48.368
			C989.388,522.68,998.222,519.405,1006.251,519.405z"/>
	</g>
	<g>
		<path fill="#2E3192" d="M229.45,520.119v-22.487h-50.418v39.889h43.459v16.776h-43.459v44.263h17.132v16.776h-54.433V598.56
			h16.955V497.632h-16.955v-16.777h104.317v39.265H229.45z"/>
		<path fill="#2E3192" d="M302.001,598.915v16.421h-47.385v-16.421h14.632v-60.858h-14.632V521.55h33.106v77.365H302.001z
			 M288.794,489.958c0,3.036-1.103,5.651-3.303,7.854c-2.202,2.202-4.82,3.301-7.854,3.301c-3.036,0-5.623-1.099-7.762-3.301
			c-2.142-2.202-3.214-4.817-3.214-7.854c0-3.033,1.072-5.651,3.214-7.854c2.139-2.199,4.726-3.3,7.762-3.3
			c3.154,0,5.801,1.069,7.942,3.214C287.722,484.158,288.794,486.807,288.794,489.958z"/>
		<path fill="#2E3192" d="M402.301,552.244v46.671h15.707v16.421H383.83v-61.931c0-5.89-0.849-10.113-2.543-12.671
			c-1.697-2.558-4.479-3.839-8.344-3.839c-8.209,0-17.433,4.049-27.664,12.138v49.882h16.151v16.421h-50.865v-16.421h16.509v-60.858
			h-16.509V521.55h34.714v11.332c11.478-8.39,22.279-12.582,32.392-12.582c8.39,0,14.591,2.586,18.606,7.762
			C400.294,533.237,402.301,541.3,402.301,552.244z"/>
		<path fill="#2E3192" d="M505.549,554.655v44.26h15.705v16.421h-31.947v-11.513c-8.923,8.746-18.858,13.118-29.805,13.118
			c-5.77,0-11.051-1.339-15.839-4.017c-4.789-2.676-8.627-6.26-11.51-10.75c-2.887-4.493-4.329-9.474-4.329-14.949
			c0-5.89,1.591-11.14,4.774-15.75c3.183-4.611,7.48-8.164,12.894-10.664c5.414-2.497,10.856-3.747,16.332-3.747
			c9.161,0,17.697,2.678,25.61,8.031v-10.085c0-7.316-1.548-12.55-4.64-15.704c-3.096-3.151-8.18-4.73-15.259-4.73
			c-4.998,0-9.178,0.908-12.539,2.721c-3.363,1.815-6.145,4.567-8.344,8.258l-17.668-4.375c3.983-7.436,9.371-12.983,16.152-16.642
			c6.781-3.659,14.841-5.488,24.183-5.488c12.55,0,21.728,2.855,27.529,8.564C502.647,533.328,505.549,542.341,505.549,554.655z
			 M462.001,602.752c9.043,0,17.519-3.776,25.433-11.332v-10.976c-8.034-6.248-16.062-9.371-24.094-9.371
			c-4.88,0-9.089,1.534-12.627,4.597c-3.539,3.064-5.31,6.916-5.31,11.556c0,4.464,1.546,8.165,4.642,11.11
			C453.136,601.28,457.121,602.752,462.001,602.752z"/>
		<path fill="#2E3192" d="M621.02,552.244v46.671h15.705v16.421h-34.178v-61.931c0-5.89-0.846-10.113-2.541-12.671
			c-1.697-2.558-4.479-3.839-8.344-3.839c-8.212,0-17.433,4.049-27.666,12.138v49.882h16.154v16.421h-50.865v-16.421h16.507v-60.858
			h-16.507V521.55h34.711v11.332c11.483-8.39,22.279-12.582,32.394-12.582c8.387,0,14.591,2.586,18.606,7.762
			S621.02,541.3,621.02,552.244z"/>
	</g>
	<g>
		<path fill="#2E3192" d="M726.316,700.047h-46.584c0.671,5.322,2.731,9.526,6.188,12.611c3.452,3.084,7.686,4.627,12.69,4.627
			c3.666,0,7.067-0.76,10.207-2.274c3.137-1.517,5.764-3.844,7.877-6.98l9.623,4.337c-3.034,4.724-7.005,8.293-11.923,10.706
			c-4.916,2.414-10.267,3.623-16.048,3.623c-5.993,0-11.315-1.252-15.969-3.755c-4.651-2.502-8.274-5.993-10.868-10.471
			c-2.589-4.477-3.884-9.515-3.884-15.12c0-5.57,1.279-10.594,3.834-15.07c2.553-4.479,6.055-7.976,10.495-10.495
			c4.442-2.521,9.341-3.781,14.7-3.781c5.851,0,10.954,1.296,15.308,3.885c4.354,2.591,7.781,6.293,10.286,11.105
			C724.749,687.805,726.104,693.489,726.316,700.047z M696.866,677.098c-4.127,0-7.74,1.385-10.841,4.151
			c-3.101,2.77-5.094,6.423-5.974,10.972h34.793c-1.024-4.549-3.195-8.202-6.505-10.972
			C705.022,678.482,701.2,677.098,696.866,677.098z"/>
		<path fill="#2E3192" d="M802.563,715.328v9.729h-20.885v-8.144c-5.57,6.064-12.214,9.096-19.935,9.096
			c-5.358,0-10.091-1.26-14.197-3.781c-4.105-2.52-7.295-5.949-9.57-10.283c-2.274-4.337-3.411-9.13-3.411-14.383
			c0-5.358,1.207-10.293,3.623-14.805c2.413-4.513,5.755-8.102,10.019-10.763c4.265-2.661,8.885-3.99,13.854-3.99
			c3.596,0,7.005,0.722,10.233,2.166c3.224,1.447,6.351,3.721,9.385,6.822v-21.995h-10.733v-9.625h21.572v69.956H802.563z
			 M763.806,716.278c3.385,0,6.433-0.899,9.149-2.695c2.714-1.798,4.846-4.194,6.396-7.192c1.551-2.995,2.327-6.201,2.327-9.622
			c0-3.457-0.776-6.61-2.327-9.464c-1.55-2.856-3.702-5.11-6.452-6.77c-2.75-1.656-5.851-2.485-9.305-2.485
			c-3.351,0-6.337,0.89-8.964,2.671c-2.625,1.778-4.695,4.142-6.212,7.084c-1.514,2.944-2.274,6.091-2.274,9.438
			c0,3.599,0.776,6.839,2.327,9.73c1.55,2.89,3.666,5.166,6.346,6.819C757.496,715.451,760.494,716.278,763.806,716.278z"/>
		<path fill="#2E3192" d="M834.662,715.328v9.729h-28.08v-9.729h8.673v-36.062h-8.673v-9.783H826.2v45.846H834.662z
			 M826.835,650.766c0,1.796-0.651,3.349-1.957,4.651c-1.305,1.306-2.856,1.957-4.654,1.957c-1.796,0-3.33-0.651-4.599-1.957
			c-1.271-1.303-1.904-2.855-1.904-4.651c0-1.798,0.632-3.349,1.904-4.653c1.269-1.306,2.803-1.957,4.599-1.957
			c1.868,0,3.438,0.635,4.707,1.904C826.2,647.328,826.835,648.896,826.835,650.766z"/>
		<path fill="#2E3192" d="M868.977,669.482v9.783h-10.152V708.4c0,3.031,0.325,4.995,0.979,5.895
			c0.649,0.901,1.771,1.349,3.356,1.349c1.94,0,3.877-0.332,5.817-1.003v9.888c-3.385,0.987-6.116,1.48-8.197,1.48
			c-4.582,0-7.877-1.154-9.887-3.464c-2.009-2.311-3.014-6.267-3.014-11.87v-31.409h-7.243v-9.783h7.243v-8.406l10.947-9.993v18.399
			H868.977z"/>
		<path fill="#2E3192" d="M934.861,697.351c0,5.392-1.289,10.329-3.86,14.805c-2.575,4.477-6.08,8.02-10.522,10.628
			c-4.442,2.607-9.36,3.913-14.754,3.913c-5.567,0-10.591-1.306-15.067-3.913c-4.479-2.608-7.959-6.151-10.445-10.628
			c-2.485-4.476-3.726-9.413-3.726-14.805c0-5.643,1.241-10.681,3.726-15.123c2.486-4.442,5.95-7.923,10.39-10.442
			c4.444-2.521,9.483-3.781,15.123-3.781c5.466,0,10.418,1.329,14.86,3.99c4.44,2.661,7.93,6.233,10.469,10.709
			C933.592,687.18,934.861,692.062,934.861,697.351z M905.725,716.069c3.245,0,6.223-0.849,8.938-2.541
			c2.714-1.69,4.829-3.964,6.344-6.82c1.517-2.854,2.276-5.974,2.276-9.357c0-3.312-0.76-6.399-2.276-9.253
			c-1.515-2.858-3.63-5.156-6.344-6.901c-2.714-1.745-5.729-2.618-9.041-2.618c-3.245,0-6.224,0.856-8.935,2.565
			c-2.716,1.709-4.849,4.01-6.399,6.898c-1.553,2.893-2.327,5.996-2.327,9.309s0.774,6.415,2.327,9.305
			c1.55,2.892,3.702,5.183,6.449,6.873C899.486,715.221,902.481,716.069,905.725,716.069z"/>
		<path fill="#2E3192" d="M963.361,702.742v12.586h12.108v9.729h-34.104v-9.729h11.156v-36.062h-11.156v-9.783h19.827v12.587
			c2.221-4.972,4.978-8.434,8.276-10.39c3.295-1.957,8.009-2.938,14.144-2.938h2.486v11.053h-2.38
			c-5.923,0-10.33,0.774-13.221,2.324c-2.89,1.553-4.803,3.896-5.736,7.034C963.83,692.292,963.361,696.821,963.361,702.742z"/>
		<path fill="#2E3192" d="M1039.503,689.101v26.228h9.306v9.729h-18.928v-6.822c-5.289,5.183-11.176,7.774-17.661,7.774
			c-3.421,0-6.548-0.793-9.387-2.38c-2.836-1.587-5.11-3.709-6.82-6.37c-1.709-2.663-2.565-5.615-2.565-8.858
			c0-3.487,0.942-6.601,2.83-9.334c1.885-2.73,4.433-4.837,7.642-6.317c3.207-1.48,6.433-2.221,9.676-2.221
			c5.428,0,10.485,1.586,15.175,4.76v-5.977c0-4.334-0.918-7.438-2.75-9.305c-1.834-1.868-4.846-2.804-9.041-2.804
			c-2.962,0-5.44,0.539-7.431,1.613c-1.993,1.074-3.642,2.707-4.944,4.89l-10.469-2.589c2.361-4.406,5.553-7.695,9.57-9.86
			c4.02-2.171,8.796-3.253,14.33-3.253c7.44,0,12.875,1.692,16.312,5.074C1037.784,676.463,1039.503,681.805,1039.503,689.101z
			 M1013.7,717.601c5.356,0,10.38-2.238,15.07-6.715v-6.502c-4.759-3.702-9.519-5.556-14.276-5.556
			c-2.892,0-5.387,0.909-7.483,2.724c-2.099,1.817-3.147,4.099-3.147,6.849c0,2.642,0.916,4.839,2.75,6.582
			C1008.446,716.729,1010.809,717.601,1013.7,717.601z"/>
	</g>
	<g>
		<g>
			<path fill="#F68B1F" d="M418.47,437.961c-0.135,0.019-0.51-2.457-0.832-5.498L386.9,143.516l-38.195,9.866
				c-2.964,0.764-4.885,3.844-4.274,6.841l56.279,275.214c0.61,3,3.606,5.23,6.654,4.962l6.714-0.594
				C417.124,439.535,418.606,437.944,418.47,437.961z"/>
		</g>
		<g>
			<path fill="#2E3192" d="M461.251,115.194c-3.058,0-5.562,2.502-5.562,5.562v312.795c0,3.061,2.505,5.562,5.562,5.562h128.447
				c3.058,0,5.564,0,5.569,0c0.005-0.002,0.01-0.002,0.015,0c0.005,0,2.512,0,5.572,0h128.439c3.061,0,5.562-2.502,5.562-5.562
				V120.757c0-3.061-2.502-5.562-5.562-5.562H461.251z"/>
		</g>
		<g>
			<path fill="#007DC5" d="M439.152,439.04c3.058-0.069,5.209-0.822,4.779-1.676c-0.43-0.851-0.781-5.892-0.781-8.949V146.141
				c0-3.058,0-7.505,0-9.877c0-2.373,0-6.479,0-6.479l-38.125,4.635c-3.034,0.375-6.214,3.151-5.947,7.689
				c0.493,3.638,30.205,291.608,30.205,291.608c0.315,3.043,3.077,5.477,6.135,5.406L439.152,439.04z"/>
		</g>
		<g>
			<path fill="#F68B1F" d="M772.08,437.961c0.135,0.019,0.51-2.457,0.832-5.498l30.738-288.947l38.195,9.866
				c2.964,0.764,4.885,3.844,4.274,6.841L789.84,435.437c-0.613,3-3.608,5.23-6.654,4.962l-6.714-0.594
				C773.426,439.535,771.943,437.944,772.08,437.961z"/>
		</g>
		<g>
			<path fill="#007DC5" d="M751.397,439.04c-3.058-0.069-5.209-0.822-4.779-1.676c0.43-0.851,0.781-5.892,0.781-8.949V146.141
				c0-3.058,0-7.505,0-9.877c0-2.373,0-6.479,0-6.479l38.125,4.635c3.036,0.375,6.209,3.151,5.945,7.689
				c-0.49,3.638-30.202,291.608-30.202,291.608c-0.317,3.043-3.077,5.477-6.135,5.406L751.397,439.04z"/>
		</g>
	</g>
	<g>
		<g>
			<g>
				<path fill="#FFFFFF" d="M476.939,170.963c-1.694,0-3.069-1.377-3.069-3.072v-31.497c0-1.697,1.375-3.072,3.069-3.072h31.495
					c1.7,0,3.075,1.375,3.075,3.072s-1.375,3.072-3.075,3.072h-28.42v28.425C480.014,169.586,478.637,170.963,476.939,170.963z"/>
			</g>
			<g>
				<path fill="#FFFFFF" d="M713.269,170.963c-1.695,0-3.072-1.377-3.072-3.072v-28.425h-28.423c-1.697,0-3.072-1.375-3.072-3.072
					s1.375-3.072,3.072-3.072h31.496c1.699,0,3.074,1.375,3.074,3.072v31.497C716.343,169.586,714.968,170.963,713.269,170.963z"/>
			</g>
			<g>
				<path fill="#FFFFFF" d="M713.271,420.601h-31.493c-1.699,0-3.074-1.375-3.074-3.075c0-1.694,1.375-3.072,3.074-3.072h28.421
					V386.03c0-1.697,1.377-3.074,3.072-3.074c1.699,0,3.074,1.377,3.074,3.074v31.495
					C716.346,419.226,714.971,420.601,713.271,420.601z"/>
			</g>
			<g>
				<path fill="#FFFFFF" d="M508.437,420.601h-31.495c-1.695,0-3.07-1.375-3.07-3.075V386.03c0-1.697,1.375-3.074,3.07-3.074
					c1.697,0,3.075,1.377,3.075,3.074v28.423h28.42c1.7,0,3.075,1.378,3.075,3.072C511.512,419.226,510.137,420.601,508.437,420.601
					z"/>
			</g>
		</g>
	</g>
	<g>
		<path fill="#FFFFFF" d="M684.619,291.966c-0.271-1.053-0.499-1.94-0.683-2.63c0.452-0.378,0.863-0.722,0.918-0.77
			c1.884-1.743,2.002-4.692,0.262-6.579c-0.876-0.957-2.125-1.505-3.422-1.505c-1.174,0-2.297,0.439-3.16,1.238
			c-0.226,0.209-1.108,0.956-1.756,1.505c-0.547,0.464-1.045,0.887-1.246,1.064c-1.373,1.214-1.904,3.135-1.351,4.89
			c0.232,0.733,0.812,2.918,1.325,4.849c0.452,1.709,0.88,3.326,1.105,4.081c0.585,1.957,2.421,3.325,4.463,3.325
			c0.451,0,0.9-0.065,1.331-0.195c2.46-0.735,3.867-3.334,3.132-5.791C685.395,294.973,685.002,293.444,684.619,291.966z"/>
		<path fill="#FFFFFF" d="M662.242,282.821c8.775-6.123,16.083-13.788,21.732-22.793c1.363-2.178,0.702-5.058-1.471-6.419
			c-0.744-0.469-1.599-0.714-2.474-0.714c-1.618,0-3.093,0.817-3.947,2.186c-5.099,8.125-11.733,15.02-19.724,20.483
			c-3.053,2.086-4.344,5.855-3.216,9.382c0.303,0.944,0.646,2.002,1.036,3.189c5.245,15.965,11.108,37.065,9.899,58.77
			c-0.143,2.562,1.827,4.765,4.404,4.909c0.084,0.005,0.167,0.005,0.249,0.005c2.469,0,4.51-1.931,4.648-4.397
			c1.295-23.262-4.852-45.456-10.351-62.189C662.744,284.359,662.479,283.557,662.242,282.821z"/>
		<path fill="#FFFFFF" d="M522.977,212.011c0.686,0.373,1.456,0.57,2.232,0.57c1.707,0,3.275-0.931,4.09-2.428
			c9.349-17.115,21.236-30.861,37.409-43.255c2.034-1.562,2.422-4.49,0.861-6.531c-0.89-1.159-2.237-1.822-3.697-1.822
			c-1.031,0-2.012,0.332-2.832,0.962c-17.24,13.214-29.923,27.889-39.916,46.183c-0.596,1.091-0.731,2.351-0.382,3.545
			C521.093,210.427,521.888,211.415,522.977,212.011z"/>
		<path fill="#FFFFFF" d="M507.045,263.415c0.225,0.033,0.451,0.048,0.672,0.048c2.302,0,4.281-1.716,4.607-3.997
			c2.182-15.279,5.374-25.888,11.78-39.145c0.541-1.12,0.613-2.385,0.203-3.558c-0.408-1.176-1.254-2.12-2.373-2.661
			c-0.637-0.311-1.317-0.467-2.022-0.467c-1.776,0-3.423,1.034-4.196,2.633c-6.863,14.204-10.282,25.555-12.614,41.88
			C502.741,260.689,504.514,263.055,507.045,263.415z"/>
		<path fill="#FFFFFF" d="M515.979,332.033c2.444-0.784,3.797-3.411,3.012-5.854c-5.154-16.089-9.682-34-7.923-55.942
			c0.204-2.558-1.712-4.811-4.293-5.017c-2.541-0.176-4.787,1.759-4.992,4.271c-1.891,23.56,2.892,42.533,8.338,59.523
			c0.619,1.94,2.401,3.243,4.434,3.243C515.038,332.259,515.517,332.182,515.979,332.033z"/>
		<path fill="#FFFFFF" d="M644.645,300.004c-0.44,0-0.875,0.062-1.304,0.186c-1.193,0.349-2.181,1.142-2.779,2.23
			c-0.598,1.091-0.737,2.351-0.388,3.543c5.031,17.265,9.517,40.481-0.524,66.979c-0.443,1.161-0.404,2.428,0.108,3.561
			c0.51,1.137,1.433,2.005,2.597,2.444c0.531,0.202,1.086,0.306,1.649,0.306c1.922,0,3.673-1.212,4.354-3.01
			c11.146-29.411,5.771-55.681,0.759-72.885C648.542,301.384,646.7,300.004,644.645,300.004z"/>
		<path fill="#FFFFFF" d="M642.287,296.956c1.183-0.387,2.142-1.209,2.704-2.322c0.562-1.11,0.656-2.375,0.271-3.556
			c-1.054-3.204-1.9-5.88-2.521-7.954c-1.093-3.663-0.479-7.521,1.646-10.322c0.83-1.091,1.793-1.961,2.864-2.584
			c14.026-8.173,24.029-21.317,28.167-37.012c2.25-8.539,2.641-17.224,1.158-25.815c-0.386-2.237-2.314-3.865-4.588-3.865
			c-0.266,0-0.531,0.024-0.794,0.07c-2.529,0.438-4.233,2.851-3.796,5.38c1.254,7.267,0.925,14.62-0.986,21.857
			c-3.502,13.286-11.973,24.416-23.849,31.337c-2.137,1.243-4.02,2.923-5.596,5c-3.913,5.158-5.091,12.12-3.151,18.622
			c0.652,2.179,1.524,4.934,2.596,8.192c0.63,1.916,2.406,3.202,4.423,3.202C641.328,297.187,641.814,297.112,642.287,296.956z"/>
		<path fill="#FFFFFF" d="M664.059,197.362c0.808,1.553,2.399,2.521,4.149,2.521c0,0,0,0,0.002,0c0.745,0,1.488-0.183,2.151-0.526
			c0.822-0.428,1.495-1.082,1.942-1.895c0.755-1.37,0.774-3.019,0.054-4.411c-2.278-4.389-4.874-8.704-7.713-12.831
			c-0.874-1.27-2.312-2.024-3.853-2.024c-0.95,0-1.866,0.283-2.649,0.824c-2.12,1.457-2.662,4.373-1.201,6.505
			C659.56,189.328,661.953,193.31,664.059,197.362z"/>
		<path fill="#FFFFFF" d="M525.119,244.663c-0.693,2.471,0.755,5.045,3.231,5.742c0.41,0.113,0.832,0.171,1.253,0.171
			c2.078,0,3.924-1.401,4.484-3.399c8.841-31.536,28.969-57.793,56.668-73.93c7.853-4.58,16.805-6.998,25.894-6.998
			c2.567,0,4.656-2.089,4.656-4.656c0-2.569-2.089-4.658-4.656-4.658c-10.732,0-21.31,2.857-30.584,8.264
			C556.262,182.564,534.616,210.783,525.119,244.663z"/>
		<path fill="#FFFFFF" d="M531.413,258.257c0.466-2.522-1.204-4.957-3.73-5.429c-0.279-0.053-0.565-0.076-0.849-0.076
			c-2.244,0-4.168,1.599-4.578,3.805c-0.874,4.702-1.51,9.51-1.892,14.284c-1.899,23.721,4.339,42.73,9.359,58.012
			c0.565,1.938,2.113,4.178,4.66,4.181l0,0c0.464,0,0.938-0.082,1.402-0.241c2.923-0.995,3.52-4.163,2.836-6.688l-0.036-0.12
			c-4.762-14.49-10.688-32.523-8.937-54.401C530.007,267.119,530.6,262.639,531.413,258.257z"/>
		<path fill="#FFFFFF" d="M532.328,344.269c2.19-1.347,2.877-4.219,1.535-6.406c-0.855-1.392-2.338-2.224-3.974-2.224
			c-0.857,0-1.696,0.235-2.432,0.688c-2.091,1.283-4.447,2.649-7.002,4.067c-1.502,0.834-2.983,1.738-4.392,2.68
			c-1.034,0.695-1.736,1.748-1.979,2.967c-0.24,1.221,0.007,2.464,0.697,3.498c0.868,1.293,2.316,2.064,3.875,2.064
			c0.923,0,1.817-0.271,2.589-0.786c1.195-0.803,2.449-1.567,3.729-2.276C527.624,347.069,530.097,345.634,532.328,344.269z"/>
		<path fill="#FFFFFF" d="M631.513,344.9c-2.601-0.3-4.868,1.57-5.154,4.102c-0.786,6.915-2.576,13.67-5.32,20.079
			c-2.214,5.173-4.973,10.145-8.199,14.771c-0.711,1.02-0.983,2.255-0.765,3.479c0.219,1.229,0.901,2.293,1.92,3.002
			c0.785,0.549,1.708,0.842,2.662,0.842c1.521,0,2.951-0.748,3.824-1.995c3.588-5.149,6.656-10.676,9.122-16.433
			c3.102-7.25,5.124-14.885,6.011-22.697C635.9,347.502,634.062,345.191,631.513,344.9z"/>
		<path fill="#FFFFFF" d="M627.48,296.889c-1.907-5.815-4.794-14.601-4.547-17.704c0.865-10.803,6.435-20.197,14.902-25.128
			c2.218-1.293,2.972-4.148,1.679-6.37c-0.829-1.426-2.373-2.312-4.026-2.312c-0.821,0-1.631,0.219-2.341,0.63
			c-11.104,6.472-18.391,18.597-19.498,32.44c-0.396,4.976,2.221,12.946,4.994,21.384c3.157,9.618,7.09,21.592,7.999,35.026
			c0.164,2.434,2.203,4.342,4.645,4.342c0.105,0,0.216-0.002,0.317-0.007c2.562-0.179,4.504-2.401,4.332-4.962
			C634.948,319.622,630.813,307.033,627.48,296.889z"/>
		<path fill="#FFFFFF" d="M595.48,181.359c-17.244,10.049-31.624,24.697-41.582,42.366c-0.61,1.084-0.761,2.341-0.428,3.538
			c0.335,1.197,1.114,2.194,2.198,2.803c0.697,0.395,1.488,0.601,2.286,0.601c1.679,0,3.233-0.906,4.058-2.37
			c9.146-16.226,22.342-29.673,38.159-38.889c5-2.914,10.697-4.455,16.479-4.455c11.613,0,22.457,6.233,28.305,16.263
			c4.405,7.56,5.601,16.385,3.373,24.846c-1.113,4.217-2.993,8.082-5.591,11.495c-0.752,0.988-1.074,2.212-0.91,3.445
			c0.167,1.235,0.806,2.326,1.799,3.081c0.819,0.623,1.791,0.95,2.815,0.95c1.449,0,2.833-0.688,3.707-1.835
			c3.343-4.392,5.762-9.36,7.185-14.764c2.867-10.863,1.33-22.197-4.329-31.911c-7.512-12.883-21.44-20.883-36.354-20.883
			C609.222,175.641,601.903,177.619,595.48,181.359z"/>
		<path fill="#FFFFFF" d="M560.819,343.302c1.516-3.538,0.164-9.11-4.407-23.026c-4.233-12.894-9.506-28.938-8.056-47.055
			c1.051-13.128,3.535-23.33,8.309-34.116c0.503-1.137,0.535-2.403,0.088-3.562c-0.449-1.16-1.322-2.079-2.458-2.579
			c-0.601-0.267-1.237-0.401-1.887-0.401c-1.841,0-3.513,1.087-4.258,2.771c-5.156,11.645-7.955,23.099-9.08,37.145
			c-1.598,19.988,3.998,37.021,8.496,50.712c3.108,9.471,4.649,15.081,4.582,16.688c-1.88,3.913-9.483,9.586-22.613,16.872
			c-0.82,0.452-1.645,0.949-2.458,1.474c-2.158,1.39-2.78,4.279-1.386,6.438c0.862,1.334,2.324,2.13,3.912,2.13
			c0.898,0,1.769-0.255,2.525-0.743c0.623-0.401,1.269-0.788,1.92-1.151C545.414,358.591,557.481,351.093,560.819,343.302z"/>
		<path fill="#FFFFFF" d="M609.72,302.752c-0.744-2.263-1.481-4.183-2.135-5.875c-1.097-2.849-2.043-5.308-2.644-8.421
			c-0.479-2.474-2.899-4.178-5.457-3.69c-2.521,0.488-4.175,2.936-3.69,5.455c0.724,3.745,1.784,6.519,3.012,9.73
			c0.666,1.745,1.356,3.551,2.065,5.707c5.219,15.884,11.709,35.653,2.974,56.062c-3.986,9.305-10.219,17.581-19.053,25.298
			c-1.933,1.689-2.132,4.637-0.444,6.572c0.886,1.012,2.165,1.591,3.508,1.591c1.124,0,2.213-0.406,3.062-1.148
			c9.911-8.654,16.94-18.026,21.487-28.649C622.525,341.744,615.426,320.127,609.72,302.752z"/>
		<path fill="#FFFFFF" d="M599.407,280.737c0.118,0.007,0.238,0.012,0.355,0.012c2.409,0,4.447-1.88,4.642-4.286
			c1.327-16.62,9.856-30.319,24.014-38.569c5.392-3.142,9.238-8.195,10.83-14.229c1.589-6.033,0.735-12.327-2.406-17.719
			c-4.171-7.156-11.909-11.601-20.192-11.601c-4.122,0-8.188,1.096-11.752,3.178c-4.234,2.464-8.315,5.3-12.127,8.428
			c-1.985,1.627-2.276,4.567-0.646,6.556c0.887,1.084,2.201,1.701,3.6,1.701c1.073,0,2.124-0.375,2.953-1.055
			c3.425-2.812,7.099-5.363,10.911-7.584c2.144-1.25,4.586-1.909,7.062-1.909c4.981,0,9.637,2.673,12.146,6.974
			c1.887,3.243,2.402,7.026,1.445,10.656c-0.958,3.627-3.271,6.668-6.512,8.556c-16.628,9.688-27.056,26.408-28.613,45.877
			c-0.097,1.238,0.292,2.444,1.099,3.39C597.022,280.06,598.15,280.636,599.407,280.737z"/>
		<path fill="#FFFFFF" d="M568.001,349.288c-1.517,2.071-1.062,4.992,1.011,6.512c0.803,0.586,1.751,0.896,2.746,0.896
			c1.479,0,2.885-0.714,3.76-1.906c1.7-2.324,3.005-5.368,3.263-6.156c3.316-10.096-0.176-20.735-4.6-34.202
			c-3.904-11.885-8.328-25.355-7.18-39.719c1.56-19.531,9.428-38.146,22.154-52.416c1.704-1.918,1.535-4.867-0.382-6.576
			c-0.854-0.76-1.956-1.181-3.096-1.181c-1.328,0-2.595,0.569-3.479,1.561c-14.066,15.773-22.76,36.326-24.479,57.872
			c-1.297,16.23,3.438,30.651,7.617,43.375c3.886,11.827,6.953,21.168,4.58,28.421C569.801,346.114,569.146,347.726,568.001,349.288
			z"/>
		<path fill="#FFFFFF" d="M568.4,357.492c-0.876-0.919-2.104-1.445-3.375-1.445c-1.202,0-2.341,0.455-3.211,1.284
			c-4.594,4.372-10.689,8.64-19.755,13.832c-2.229,1.276-3.002,4.127-1.726,6.353c0.825,1.445,2.377,2.347,4.043,2.347
			c0.804,0,1.601-0.212,2.311-0.618c9.744-5.579,16.391-10.26,21.549-15.168C570.095,362.307,570.167,359.351,568.4,357.492z"/>
		<path fill="#FFFFFF" d="M580.652,280.478c0.118,0.005,0.235,0.015,0.354,0.015c2.408,0,4.449-1.883,4.641-4.289
			c1.837-23.009,14.306-43.375,33.357-54.471c2.215-1.291,2.969-4.149,1.68-6.37c-0.831-1.426-2.375-2.311-4.026-2.311
			c-0.823,0-1.632,0.217-2.345,0.633c-21.683,12.635-35.869,35.726-37.951,61.776C576.156,278.021,578.073,280.271,580.652,280.478z
			"/>
		<path fill="#FFFFFF" d="M591.952,308.598c-2.086-6.351-4.242-12.918-5.437-19.267c-0.414-2.202-2.336-3.798-4.577-3.798
			c-0.286,0-0.575,0.026-0.861,0.081c-2.521,0.474-4.19,2.914-3.717,5.438c1.308,6.952,3.563,13.815,5.741,20.452
			c4.89,14.88,9.505,28.936,3.547,42.851c-4.188,9.786-12.301,18.395-25.528,27.09c-1.041,0.683-1.751,1.73-2.003,2.949
			c-0.253,1.216-0.016,2.461,0.67,3.502c0.863,1.315,2.317,2.097,3.892,2.097c0.911,0,1.796-0.263,2.558-0.765
			c14.825-9.745,24.033-19.661,28.976-31.204C602.551,340.874,597.164,324.466,591.952,308.598z"/>
	</g>
</g>
</svg>
