<?xml version="1.0" encoding="utf-8"?>
<!-- Generator: Adobe Illustrator 16.0.0, SVG Export Plug-In . SVG Version: 6.00 Build 0)  -->
<!DOCTYPE svg PUBLIC "-//W3C//DTD SVG 1.1//EN" "http://www.w3.org/Graphics/SVG/1.1/DTD/svg11.dtd">
<svg version="1.1" id="Layer_1" xmlns="http://www.w3.org/2000/svg" xmlns:xlink="http://www.w3.org/1999/xlink" x="0px" y="0px"
	 width="50px" height="50px" viewBox="0 0 50 50" enable-background="new 0 0 50 50" xml:space="preserve">
<g>
	<path fill="#F68B1F" d="M25.293,50c-0.195,0-0.391,0-0.586,0c-0.191-0.119-0.407-0.107-0.616-0.108
		c-1.09-0.008-2.168-0.134-3.242-0.313c-4.874-0.82-9.151-2.896-12.749-6.266C3.068,38.6,0.367,32.778,0.109,25.859
		C0.101,25.664,0.092,25.471,0,25.293c0-0.195,0-0.391,0-0.586c0.127-0.242,0.112-0.506,0.112-0.763
		c0.004-1.304,0.168-2.594,0.438-3.862C1.904,13.73,5.176,8.594,10.439,4.775c4.062-2.945,8.622-4.514,13.651-4.668
		C24.3,0.102,24.516,0.118,24.707,0c0.195,0,0.391,0,0.586,0c0.191,0.118,0.407,0.106,0.617,0.107
		c1.122,0.005,2.235,0.129,3.338,0.323c4.846,0.85,9.108,2.92,12.688,6.288c5.007,4.712,7.697,10.52,7.954,17.42
		c0.008,0.195,0.018,0.389,0.109,0.568c0,0.195,0,0.391,0,0.586c-0.092,0.178-0.105,0.371-0.107,0.566
		c-0.013,1.27-0.16,2.523-0.4,3.769c-1.141,5.907-4.031,10.792-8.658,14.612c-4.334,3.578-9.338,5.475-14.973,5.652
		C25.667,49.898,25.468,49.889,25.293,50z M27.756,21.64c0-0.687-0.019-1.224,0.006-1.758c0.02-0.421-0.088-0.605-0.564-0.597
		c-1.677,0.029-3.353,0.027-5.029,0.001c-0.449-0.008-0.535,0.15-0.534,0.562c0.012,5.662,0.013,11.325-0.002,16.988
		c-0.001,0.432,0.136,0.565,0.551,0.562c1.594-0.015,3.189-0.004,4.784-0.005c0.789-0.001,0.789-0.002,0.789-0.77
		c0.004-3.238,0.008-6.477,0.01-9.714c0-0.973,0.395-1.765,1.095-2.412c1.257-1.157,3.339-1.034,4.297,0.261
		c0.489,0.662,0.685,1.442,0.69,2.248c0.025,3.254,0.031,6.509,0.025,9.763c-0.002,0.453,0.121,0.639,0.603,0.632
		c1.644-0.022,3.286-0.019,4.931-0.002c0.428,0.005,0.589-0.105,0.586-0.574c-0.021-3.385-0.015-6.77-0.012-10.154
		c0.002-0.849-0.11-1.682-0.296-2.508c-1.106-4.915-5.729-6.154-9.298-4.768C29.307,19.814,28.513,20.601,27.756,21.64z
		 M12.365,28.339c0,2.848,0.006,5.694-0.008,8.541c-0.002,0.384,0.121,0.518,0.496,0.515c1.708-0.01,3.417-0.01,5.125,0
		c0.379,0.002,0.505-0.15,0.505-0.525c-0.008-5.695-0.008-11.389,0-17.083c0-0.382-0.132-0.501-0.514-0.498
		c-1.691,0.019-3.384,0.023-5.076-0.002c-0.447-0.008-0.538,0.147-0.535,0.56C12.372,22.678,12.364,25.508,12.365,28.339z
		 M16.029,16.933c0.633-0.011,1.711-0.413,2.374-1.552c0.633-1.089,0.58-2.208-0.051-3.281c-0.72-1.223-2.365-1.744-3.966-1.34
		c-1.322,0.333-2.625,1.587-2.322,3.54C12.312,15.908,13.601,16.934,16.029,16.933z"/>
</g>
</svg>
