<?xml version="1.0" encoding="utf-8"?>
<!-- Generator: Adobe Illustrator 16.0.0, SVG Export Plug-In . SVG Version: 6.00 Build 0)  -->
<!DOCTYPE svg PUBLIC "-//W3C//DTD SVG 1.1//EN" "http://www.w3.org/Graphics/SVG/1.1/DTD/svg11.dtd">
<svg version="1.1" id="Layer_1" xmlns="http://www.w3.org/2000/svg" xmlns:xlink="http://www.w3.org/1999/xlink" x="0px" y="0px"
	 width="50px" height="50px" viewBox="0 0 50 50" enable-background="new 0 0 50 50" xml:space="preserve">
<path fill="#F68B1F" d="M24.996,0C11.187,0,0,11.195,0,25c0,13.809,11.187,25,24.996,25C38.816,50,50,38.809,50,25
	C50,11.195,38.816,0,24.996,0z M32.006,19.982l-0.369,4.432h-4.861v15.389h-6.152V24.414h-3.285v-4.432h3.285v-2.976
	c0-1.309,0.025-3.332,1.052-4.586c1.074-1.331,2.559-2.231,5.1-2.231c4.132,0,5.882,0.549,5.882,0.549l-0.829,4.538
	c0,0-1.363-0.371-2.633-0.371c-1.286,0-2.42,0.432-2.42,1.62v3.457H32.006z"/>
</svg>
