<?xml version="1.0" encoding="utf-8"?>
<!-- Generator: Adobe Illustrator 16.0.0, SVG Export Plug-In . SVG Version: 6.00 Build 0)  -->
<!DOCTYPE svg PUBLIC "-//W3C//DTD SVG 1.1//EN" "http://www.w3.org/Graphics/SVG/1.1/DTD/svg11.dtd">
<svg version="1.1" id="Layer_1" xmlns="http://www.w3.org/2000/svg" xmlns:xlink="http://www.w3.org/1999/xlink" x="0px" y="0px"
	 width="50px" height="50px" viewBox="0 0 50 50" enable-background="new 0 0 50 50" xml:space="preserve">
<g>
	<g>
		<path fill="#F68B1F" d="M24.999,50.032c-13.785,0-25-11.229-25-25.032c0-13.803,11.215-25.033,25-25.033s25,11.229,25,25.033
			C49.999,38.803,38.784,50.032,24.999,50.032z M24.999,0.967c-13.233,0-24,10.781-24,24.033c0,13.251,10.767,24.032,24,24.032
			s24-10.781,24-24.032C48.999,11.749,38.232,0.967,24.999,0.967z"/>
	</g>
	<g>
		<g>
			<path fill="#F68B1F" d="M36.093,26.974c-0.034-0.13-0.062-0.237-0.084-0.322c0.056-0.046,0.105-0.089,0.112-0.094
				c0.23-0.212,0.247-0.573,0.033-0.805c-0.105-0.118-0.257-0.186-0.416-0.186c-0.146,0-0.279,0.053-0.39,0.151
				c-0.025,0.026-0.135,0.117-0.213,0.182c-0.067,0.058-0.128,0.109-0.151,0.131c-0.17,0.148-0.233,0.383-0.168,0.6
				c0.03,0.09,0.098,0.355,0.162,0.592c0.054,0.21,0.105,0.408,0.131,0.501c0.072,0.239,0.296,0.408,0.547,0.409
				c0.056,0,0.109-0.008,0.161-0.025c0.299-0.089,0.475-0.405,0.385-0.707C36.187,27.343,36.139,27.155,36.093,26.974z"/>
		</g>
		<g>
			<path fill="#F68B1F" d="M33.359,25.847c1.074-0.746,1.972-1.683,2.664-2.784c0.169-0.265,0.087-0.618-0.178-0.785
				c-0.09-0.058-0.195-0.089-0.304-0.089c-0.197,0-0.378,0.099-0.482,0.267c-0.626,0.993-1.439,1.834-2.416,2.5
				c-0.375,0.254-0.532,0.716-0.398,1.149c0.037,0.113,0.079,0.244,0.125,0.389c0.636,1.957,1.346,4.542,1.192,7.196
				c-0.018,0.314,0.224,0.586,0.536,0.603c0.01,0.001,0.022,0.001,0.032,0.001c0.301,0.001,0.55-0.234,0.568-0.535
				c0.165-2.849-0.576-5.567-1.244-7.618C33.419,26.036,33.387,25.938,33.359,25.847z"/>
		</g>
		<g>
			<path fill="#F68B1F" d="M16.357,17.135c0.083,0.046,0.178,0.07,0.272,0.07c0.208,0.001,0.402-0.112,0.501-0.296
				c1.148-2.093,2.605-3.771,4.588-5.282c0.249-0.192,0.297-0.549,0.107-0.8c-0.109-0.143-0.272-0.223-0.454-0.224
				c-0.125-0.001-0.245,0.04-0.345,0.117c-2.111,1.611-3.667,3.405-4.896,5.641c-0.073,0.133-0.089,0.288-0.048,0.434
				C16.128,16.939,16.224,17.061,16.357,17.135z"/>
		</g>
		<g>
			<path fill="#F68B1F" d="M14.393,23.421c0.027,0.005,0.056,0.006,0.083,0.007c0.281,0,0.524-0.209,0.564-0.489
				c0.272-1.87,0.663-3.167,1.451-4.787c0.069-0.138,0.076-0.292,0.028-0.437c-0.051-0.143-0.154-0.259-0.29-0.326
				c-0.079-0.038-0.161-0.057-0.247-0.057c-0.218-0.001-0.42,0.125-0.514,0.321c-0.843,1.736-1.265,3.125-1.556,5.121
				C13.869,23.086,14.083,23.376,14.393,23.421z"/>
		</g>
		<g>
			<path fill="#F68B1F" d="M15.462,31.825c0.3-0.095,0.467-0.417,0.371-0.718c-0.624-1.971-1.171-4.165-0.951-6.851
				c0.027-0.312-0.206-0.589-0.522-0.615c-0.312-0.022-0.586,0.214-0.611,0.521c-0.239,2.885,0.339,5.208,1,7.291
				c0.075,0.237,0.292,0.396,0.541,0.396C15.348,31.851,15.406,31.843,15.462,31.825z"/>
		</g>
		<g>
			<path fill="#F68B1F" d="M31.204,27.945c-0.054,0-0.11,0.007-0.162,0.021c-0.147,0.043-0.265,0.14-0.339,0.273
				c-0.073,0.134-0.094,0.287-0.05,0.433c0.61,2.115,1.15,4.96-0.086,8.199c-0.056,0.142-0.05,0.297,0.015,0.437
				c0.06,0.139,0.171,0.247,0.312,0.301c0.068,0.022,0.136,0.038,0.204,0.038c0.234,0.001,0.448-0.146,0.534-0.368
				c1.369-3.597,0.724-6.812,0.115-8.92C31.679,28.114,31.455,27.946,31.204,27.945z"/>
		</g>
		<g>
			<path fill="#F68B1F" d="M30.917,27.572c0.144-0.048,0.261-0.147,0.331-0.284c0.067-0.136,0.079-0.289,0.031-0.434
				c-0.125-0.396-0.231-0.723-0.305-0.977c-0.134-0.449-0.056-0.92,0.205-1.262c0.1-0.133,0.222-0.24,0.354-0.315
				c1.714-0.995,2.942-2.602,3.455-4.522c0.277-1.044,0.327-2.108,0.147-3.16c-0.046-0.273-0.281-0.474-0.561-0.475
				c-0.033,0-0.063,0.002-0.096,0.008c-0.309,0.054-0.521,0.347-0.467,0.659c0.154,0.889,0.11,1.789-0.127,2.675
				c-0.431,1.626-1.472,2.985-2.925,3.829c-0.264,0.151-0.493,0.356-0.688,0.61c-0.479,0.629-0.626,1.481-0.391,2.279
				c0.08,0.265,0.186,0.604,0.315,1.002c0.075,0.235,0.295,0.393,0.54,0.393C30.797,27.598,30.854,27.589,30.917,27.572z"/>
		</g>
		<g>
			<path fill="#F68B1F" d="M33.61,15.387c0.096,0.189,0.291,0.31,0.507,0.31l0,0c0.09,0,0.179-0.022,0.261-0.065
				c0.102-0.052,0.186-0.13,0.239-0.23c0.092-0.167,0.094-0.369,0.008-0.54c-0.277-0.538-0.594-1.067-0.938-1.573
				c-0.108-0.156-0.281-0.248-0.471-0.249c-0.116-0.001-0.228,0.034-0.325,0.1c-0.257,0.179-0.327,0.535-0.147,0.795
				C33.061,14.402,33.355,14.89,33.61,15.387z"/>
		</g>
		<g>
			<path fill="#F68B1F" d="M16.608,21.131c-0.084,0.302,0.09,0.618,0.394,0.705c0.05,0.014,0.102,0.021,0.151,0.021
				c0.254,0,0.48-0.17,0.549-0.415c1.093-3.857,3.562-7.065,6.954-9.032c0.96-0.559,2.055-0.851,3.167-0.848
				c0.313,0.001,0.568-0.254,0.57-0.569c0-0.315-0.253-0.571-0.568-0.572c-1.312-0.003-2.607,0.344-3.74,1.002
				C20.437,13.54,17.782,16.987,16.608,21.131z"/>
		</g>
		<g>
			<path fill="#F68B1F" d="M17.374,22.798c0.057-0.308-0.146-0.607-0.456-0.665c-0.033-0.007-0.069-0.01-0.102-0.011
				c-0.274,0-0.509,0.196-0.562,0.465c-0.108,0.577-0.187,1.165-0.237,1.749c-0.237,2.904,0.518,5.231,1.128,7.104
				c0.068,0.237,0.255,0.512,0.567,0.514l0,0c0.057,0,0.115-0.01,0.171-0.027c0.358-0.122,0.431-0.51,0.347-0.82l-0.004-0.014
				c-0.576-1.775-1.294-3.984-1.074-6.662C17.2,23.882,17.272,23.334,17.374,22.798z"/>
		</g>
		<g>
			<path fill="#F68B1F" d="M17.458,33.328c0.268-0.165,0.354-0.516,0.189-0.784c-0.105-0.172-0.285-0.273-0.486-0.274
				c-0.104,0-0.207,0.029-0.297,0.084c-0.256,0.155-0.543,0.323-0.857,0.494c-0.183,0.104-0.364,0.214-0.536,0.327
				c-0.128,0.085-0.212,0.214-0.247,0.363c-0.029,0.148,0.003,0.303,0.088,0.428c0.104,0.161,0.281,0.255,0.473,0.256
				c0.112,0,0.22-0.034,0.316-0.095c0.147-0.099,0.3-0.191,0.456-0.278C16.882,33.669,17.185,33.493,17.458,33.328z"/>
		</g>
		<g>
			<path fill="#F68B1F" d="M29.583,33.437c-0.319-0.038-0.597,0.191-0.632,0.502c-0.098,0.846-0.319,1.67-0.656,2.455
				c-0.273,0.632-0.612,1.24-1.007,1.805c-0.088,0.125-0.124,0.275-0.096,0.427c0.025,0.15,0.109,0.282,0.235,0.367
				c0.094,0.068,0.205,0.105,0.321,0.105c0.187,0.001,0.364-0.091,0.468-0.245c0.445-0.628,0.819-1.303,1.125-2.007
				c0.381-0.887,0.63-1.821,0.739-2.779C30.117,33.758,29.894,33.474,29.583,33.437z"/>
		</g>
		<g>
			<path fill="#F68B1F" d="M29.104,27.56c-0.229-0.715-0.58-1.791-0.551-2.169c0.112-1.323,0.794-2.471,1.831-3.072
				c0.271-0.158,0.364-0.507,0.207-0.78c-0.1-0.174-0.289-0.283-0.49-0.283c-0.1-0.001-0.202,0.026-0.287,0.077
				c-1.36,0.788-2.253,2.27-2.393,3.965c-0.05,0.609,0.265,1.585,0.602,2.619c0.383,1.178,0.859,2.647,0.965,4.291
				c0.021,0.297,0.27,0.531,0.568,0.532c0.015,0,0.026,0,0.038-0.001c0.315-0.02,0.553-0.292,0.532-0.605
				C30.012,30.344,29.507,28.801,29.104,27.56z"/>
		</g>
		<g>
			<path fill="#F68B1F" d="M25.23,13.406c-2.112,1.225-3.874,3.013-5.095,5.172c-0.078,0.134-0.096,0.285-0.055,0.434
				c0.04,0.146,0.136,0.269,0.27,0.343c0.083,0.048,0.178,0.073,0.276,0.074c0.207,0.001,0.398-0.108,0.498-0.288
				c1.125-1.983,2.741-3.625,4.679-4.749c0.612-0.355,1.308-0.541,2.014-0.54c1.422,0.004,2.743,0.77,3.455,2
				c0.536,0.926,0.68,2.006,0.405,3.043c-0.136,0.516-0.369,0.987-0.688,1.405c-0.094,0.121-0.134,0.271-0.111,0.422
				c0.018,0.151,0.098,0.285,0.217,0.377c0.101,0.077,0.222,0.118,0.348,0.118c0.175,0,0.345-0.084,0.452-0.225
				c0.409-0.537,0.706-1.144,0.884-1.804c0.353-1.33,0.169-2.717-0.519-3.909c-0.913-1.579-2.616-2.562-4.438-2.567
				C26.911,12.71,26.017,12.95,25.23,13.406z"/>
		</g>
		<g>
			<path fill="#F68B1F" d="M20.94,33.218c0.188-0.433,0.023-1.115-0.53-2.82c-0.513-1.581-1.152-3.543-0.969-5.763
				c0.132-1.606,0.44-2.854,1.025-4.174c0.062-0.138,0.066-0.293,0.012-0.435c-0.054-0.143-0.161-0.255-0.299-0.317
				c-0.074-0.033-0.15-0.05-0.231-0.05c-0.226,0-0.429,0.132-0.521,0.338c-0.634,1.423-0.98,2.824-1.122,4.542
				c-0.203,2.446,0.477,4.534,1.022,6.212c0.377,1.159,0.561,1.848,0.555,2.043c-0.233,0.479-1.163,1.171-2.771,2.059
				c-0.102,0.055-0.201,0.117-0.301,0.181c-0.262,0.17-0.342,0.522-0.171,0.787c0.106,0.162,0.282,0.261,0.479,0.261
				c0.11,0,0.217-0.028,0.307-0.09c0.076-0.049,0.157-0.097,0.235-0.14C19.053,35.084,20.532,34.172,20.94,33.218z"/>
		</g>
		<g>
			<path fill="#F68B1F" d="M26.931,28.271c-0.092-0.277-0.177-0.513-0.257-0.722c-0.134-0.348-0.249-0.647-0.323-1.031
				c-0.056-0.302-0.351-0.512-0.665-0.451c-0.308,0.058-0.511,0.355-0.452,0.665c0.086,0.46,0.214,0.799,0.364,1.191
				c0.081,0.216,0.165,0.438,0.249,0.699c0.635,1.947,1.42,4.368,0.348,6.865c-0.492,1.137-1.257,2.147-2.338,3.092
				c-0.237,0.205-0.26,0.566-0.056,0.804c0.107,0.122,0.264,0.194,0.429,0.195c0.138,0,0.27-0.05,0.374-0.14
				c1.215-1.058,2.076-2.201,2.637-3.501C28.484,33.049,27.625,30.398,26.931,28.271z"/>
		</g>
		<g>
			<path fill="#F68B1F" d="M25.677,25.571c0.015,0.001,0.03,0.001,0.044,0.001c0.296,0.001,0.544-0.227,0.57-0.522
				c0.165-2.034,1.214-3.707,2.949-4.713c0.657-0.383,1.13-1,1.325-1.738c0.198-0.737,0.096-1.508-0.287-2.17
				c-0.506-0.876-1.451-1.422-2.464-1.425c-0.505-0.001-1.001,0.131-1.438,0.384c-0.519,0.301-1.018,0.647-1.487,1.028
				c-0.243,0.198-0.277,0.559-0.081,0.803c0.109,0.134,0.268,0.208,0.438,0.208c0.132,0.001,0.262-0.045,0.363-0.127
				c0.42-0.344,0.869-0.654,1.336-0.925c0.261-0.152,0.56-0.233,0.865-0.232c0.606,0.002,1.176,0.331,1.481,0.859
				c0.229,0.397,0.291,0.86,0.173,1.304c-0.117,0.443-0.402,0.815-0.797,1.045c-2.038,1.18-3.319,3.224-3.514,5.607
				c-0.013,0.152,0.035,0.298,0.132,0.415C25.388,25.489,25.525,25.56,25.677,25.571z"/>
		</g>
		<g>
			<path fill="#F68B1F" d="M21.816,33.953c-0.186,0.252-0.132,0.611,0.123,0.798c0.098,0.071,0.214,0.109,0.335,0.109
				c0.182,0,0.354-0.086,0.459-0.232c0.21-0.284,0.371-0.656,0.402-0.753c0.408-1.233-0.015-2.537-0.551-4.187
				c-0.473-1.456-1.009-3.106-0.865-4.865c0.197-2.39,1.166-4.667,2.726-6.409c0.21-0.234,0.189-0.594-0.044-0.805
				c-0.105-0.093-0.239-0.146-0.379-0.146c-0.163,0-0.318,0.069-0.425,0.19c-1.727,1.927-2.793,4.44-3.013,7.076
				c-0.163,1.988,0.411,3.753,0.918,5.314c0.469,1.445,0.842,2.593,0.551,3.479C22.039,33.566,21.958,33.763,21.816,33.953z"/>
		</g>
		<g>
			<path fill="#F68B1F" d="M21.862,34.957c-0.107-0.112-0.256-0.176-0.412-0.176c-0.146-0.001-0.285,0.054-0.392,0.155
				c-0.563,0.532-1.31,1.052-2.419,1.686c-0.272,0.155-0.368,0.506-0.214,0.776c0.1,0.178,0.289,0.29,0.494,0.291
				c0.1,0,0.197-0.026,0.283-0.076c1.194-0.68,2.007-1.251,2.64-1.849C22.067,35.548,22.079,35.185,21.862,34.957z"/>
		</g>
		<g>
			<path fill="#F68B1F" d="M23.388,25.535c0.012,0,0.027,0.002,0.041,0.002c0.296,0,0.545-0.229,0.57-0.523
				c0.231-2.817,1.762-5.306,4.095-6.658c0.271-0.157,0.362-0.506,0.207-0.78c-0.102-0.174-0.289-0.283-0.49-0.284
				c-0.1,0-0.199,0.026-0.289,0.078c-2.653,1.539-4.396,4.361-4.658,7.55C22.838,25.232,23.068,25.508,23.388,25.535z"/>
		</g>
		<g>
			<path fill="#F68B1F" d="M24.758,28.98c-0.252-0.779-0.515-1.584-0.658-2.359c-0.05-0.271-0.284-0.466-0.559-0.467
				c-0.035,0-0.069,0.003-0.105,0.009c-0.306,0.057-0.513,0.354-0.456,0.664c0.157,0.852,0.433,1.692,0.697,2.505
				c0.592,1.823,1.15,3.546,0.417,5.247c-0.515,1.197-1.51,2.248-3.129,3.309c-0.126,0.084-0.214,0.21-0.245,0.361
				c-0.031,0.148-0.002,0.3,0.079,0.429c0.107,0.16,0.283,0.256,0.477,0.256c0.113,0.001,0.218-0.031,0.314-0.093
				c1.814-1.188,2.945-2.398,3.552-3.81C26.044,32.934,25.39,30.923,24.758,28.98z"/>
		</g>
	</g>
</g>
</svg>
