<?xml version="1.0" encoding="utf-8"?>
<!-- Generator: Adobe Illustrator 16.0.0, SVG Export Plug-In . SVG Version: 6.00 Build 0)  -->
<!DOCTYPE svg PUBLIC "-//W3C//DTD SVG 1.1//EN" "http://www.w3.org/Graphics/SVG/1.1/DTD/svg11.dtd">
<svg version="1.1" id="Layer_1" xmlns="http://www.w3.org/2000/svg" xmlns:xlink="http://www.w3.org/1999/xlink" x="0px" y="0px"
	 width="50px" height="50px" viewBox="0 0 50 50" enable-background="new 0 0 50 50" xml:space="preserve">
<g>
	<path fill="#00ADE6" d="M32.865,25.222c0,4.195-3.513,7.587-7.842,7.587c-4.338,0-7.842-3.392-7.842-7.587
		c0-0.75,0.117-1.472,0.326-2.162h-2.31v10.652c0,0.559,0.453,1.001,1.006,1.001h17.554c0.553,0,0.998-0.442,0.998-1.001V23.06
		h-2.221C32.751,23.75,32.865,24.472,32.865,25.222z"/>
	<path fill="#00ADE6" d="M25.023,29.856c2.799,0,5.062-2.2,5.062-4.906c0-2.709-2.264-4.909-5.062-4.909
		c-2.796,0-5.061,2.2-5.061,4.909C19.962,27.656,22.228,29.856,25.023,29.856z"/>
	<path fill="#00ADE6" d="M25.115,0h-0.233C11.129,0,0,11.141,0,24.881v0.241C0,38.863,11.129,50,24.881,50h0.233
		C38.867,50,50,38.863,50,25.122v-0.241C50,11.141,38.867,0,25.115,0z M37.602,34.376c0,1.775-1.449,3.232-3.228,3.232H15.626
		c-1.779,0-3.231-1.457-3.231-3.232v-18.74c0-1.782,1.453-3.239,3.231-3.239h18.748c1.778,0,3.228,1.457,3.228,3.239V34.376z"/>
	<path fill="#00ADE6" d="M30.764,20.187h2.849c0.624,0,1.138-0.51,1.138-1.137v-2.717c0-0.629-0.514-1.132-1.138-1.132h-2.849
		c-0.624,0-1.142,0.503-1.142,1.132v2.717C29.622,19.677,30.14,20.187,30.764,20.187z"/>
</g>
</svg>
