<?xml version="1.0" encoding="utf-8"?>
<!-- Generator: Adobe Illustrator 16.0.0, SVG Export Plug-In . SVG Version: 6.00 Build 0)  -->
<!DOCTYPE svg PUBLIC "-//W3C//DTD SVG 1.1//EN" "http://www.w3.org/Graphics/SVG/1.1/DTD/svg11.dtd">
<svg version="1.1" id="Layer_1" xmlns="http://www.w3.org/2000/svg" xmlns:xlink="http://www.w3.org/1999/xlink" x="0px" y="0px"
	 width="50px" height="50px" viewBox="0 0 50 50" enable-background="new 0 0 50 50" xml:space="preserve">
<g>
	<path fill-rule="evenodd" clip-rule="evenodd" fill="#00ADE6" d="M25,50C11.158,49.986-0.014,38.78,0,24.919
		C0.013,11.167,11.248-0.021,25.024,0C38.864,0.021,50.015,11.216,50,25.073C49.983,38.818,38.757,50.012,25,50z M30.833,18.302
		c0.076,0.012,0.107,0.074,0.151,0.118c0.601,0.596,1.274,1.096,2.007,1.517c1.385,0.798,2.893,1.221,4.459,1.47
		c0.163,0.025,0.176-0.062,0.197-0.174c0.294-1.495,0.584-2.99,0.887-4.483c0.039-0.194-0.005-0.248-0.194-0.27
		c-2.104-0.25-3.839-1.215-5.282-2.744c-0.859-0.91-1.561-1.934-2.132-3.045c-0.102-0.197-0.217-0.254-0.431-0.251
		c-1.503,0.008-3.005,0.005-4.509,0.005c-0.274-0.002-0.274-0.002-0.274,0.278c0,6.362,0,12.725,0,19.087
		c0,2.909-2.508,5.047-5.38,4.583c-2.227-0.359-3.896-2.403-3.814-4.671c0.084-2.326,1.879-4.243,4.157-4.435
		c0.667-0.056,1.336-0.023,2.005-0.021c0.189,0,0.241-0.044,0.239-0.236c-0.008-1.473-0.004-2.946-0.003-4.422
		c0-0.437,0-0.438-0.442-0.437c-0.985,0.005-1.971-0.037-2.948,0.132c-5.247,0.903-8.76,5.742-7.989,11.002
		c0.564,3.85,3.463,7.038,7.237,7.96c3.85,0.941,7.857-0.51,10.166-3.686c1.268-1.746,1.872-3.702,1.869-5.855
		c-0.002-3.708,0-7.418,0-11.128C30.81,18.498,30.787,18.398,30.833,18.302z"/>
</g>
</svg>
