<?xml version="1.0" encoding="utf-8"?>
<!-- Generator: Adobe Illustrator 16.0.0, SVG Export Plug-In . SVG Version: 6.00 Build 0)  -->
<!DOCTYPE svg PUBLIC "-//W3C//DTD SVG 1.1//EN" "http://www.w3.org/Graphics/SVG/1.1/DTD/svg11.dtd">
<svg version="1.1" id="Layer_1" xmlns="http://www.w3.org/2000/svg" xmlns:xlink="http://www.w3.org/1999/xlink" x="0px" y="0px"
	 width="50px" height="50px" viewBox="0 0 50 50" enable-background="new 0 0 50 50" xml:space="preserve">
<g>
	<ellipse fill="#FFFFFF" cx="25" cy="26.304" rx="20.963" ry="19.529"/>
	<g>
		<path fill="#94CD0F" d="M26.136,12.791c-6.424,0-11.645,5.221-11.645,11.638c0,2.127,0.594,4.213,1.702,6.038l0.307,0.502
			l-1.172,4.337l4.377-1.168l0.484,0.29c1.808,1.078,3.867,1.647,5.946,1.647c6.421,0,11.651-5.221,11.651-11.646
			C37.787,18.012,32.557,12.791,26.136,12.791z M32.975,28.827c-0.431,1.056-1.507,1.725-2.598,1.935
			c-1.045,0.207-1.904-0.137-2.872-0.446c-0.86-0.291-1.687-0.701-2.461-1.172c-1.546-0.95-2.877-2.219-3.959-3.674
			c-0.323-0.444-0.625-0.912-0.899-1.385c-0.375-0.629-0.705-1.301-0.878-2.005c-0.07-0.303-0.111-0.615-0.111-0.92
			c-0.016-1.08,0.399-2.167,1.251-2.866c0.495-0.404,1.23-0.585,1.783-0.267c0.606,0.34,0.921,1.205,1.194,1.811
			c0.222,0.475,0.474,1.095,0.378,1.621c-0.084,0.53-0.506,0.97-0.835,1.375c-0.232,0.262-0.267,0.483-0.078,0.766
			c1.108,1.857,2.648,3.198,4.647,3.991c0.275,0.103,0.485,0.068,0.665-0.139c0.349-0.439,0.693-1.273,1.224-1.491
			c0.688-0.283,1.467,0.111,2.053,0.468c0.551,0.326,1.475,0.73,1.627,1.411C33.172,28.177,33.11,28.521,32.975,28.827z"/>
		<path fill="#94CD0F" d="M25,0C11.192,0,0,11.19,0,24.996C0,38.803,11.192,50,25,50s25-11.197,25-25.004C50,11.19,38.807,0,25,0z
			 M26.136,38.789c-2.376,0-4.723-0.595-6.829-1.73l-7.819,2.094l2.095-7.779c-1.18-2.129-1.804-4.524-1.804-6.944
			c0-7.914,6.442-14.358,14.356-14.358c7.917,0,14.357,6.444,14.357,14.358C40.493,32.348,34.053,38.789,26.136,38.789z"/>
	</g>
</g>
</svg>
