<?xml version="1.0" encoding="utf-8"?>
<!-- Generator: Adobe Illustrator 16.0.0, SVG Export Plug-In . SVG Version: 6.00 Build 0)  -->
<!DOCTYPE svg PUBLIC "-//W3C//DTD SVG 1.1//EN" "http://www.w3.org/Graphics/SVG/1.1/DTD/svg11.dtd">
<svg version="1.1" id="Layer_1" xmlns="http://www.w3.org/2000/svg" xmlns:xlink="http://www.w3.org/1999/xlink" x="0px" y="0px"
	 width="50px" height="50px" viewBox="0 0 50 50" enable-background="new 0 0 50 50" xml:space="preserve">
<g>
	<path fill-rule="evenodd" clip-rule="evenodd" fill="#00ADE6" d="M25,0C11.192,0,0,11.191,0,24.996C0,38.803,11.192,50,25,50
		c13.809,0,25-11.197,25-25.004C50,11.191,38.809,0,25,0z M38.187,29.572c-0.047,2.686-2.119,4.777-4.808,4.84
		c-2.774,0.064-5.552,0.013-8.328,0.013v-0.001c-2.793,0-5.586,0.049-8.376-0.015c-2.622-0.06-4.705-2.155-4.756-4.788
		c-0.06-3.051-0.062-6.105,0-9.155c0.051-2.651,2.141-4.74,4.805-4.792c3.359-0.063,6.719-0.025,10.081-0.025
		c2.189-0.001,4.383-0.039,6.573,0.023c2.687,0.076,4.762,2.156,4.809,4.843C38.24,23.533,38.24,26.555,38.187,29.572z"/>
	<path fill-rule="evenodd" clip-rule="evenodd" fill="#00ADE6" d="M21.618,21.431c-0.002,2.384,0.005,4.769-0.01,7.151
		c-0.002,0.473,0.17,0.365,0.439,0.207c2.026-1.186,4.059-2.364,6.087-3.549c0.093-0.053,0.218-0.076,0.257-0.249
		c-2.225-1.292-4.456-2.591-6.734-3.915C21.638,21.248,21.618,21.339,21.618,21.431z"/>
</g>
</svg>
